<?xml version="1.0" encoding="utf-8"?>
<svg version="1.1" xmlns="http://www.w3.org/2000/svg" xmlns:xlink="http://www.w3.org/1999/xlink" x="0px" y="0px"
	 viewBox="0 0 96 96" enable-background="new 0 0 96 96" xml:space="preserve">
<g id="Layer_1">
		<line fill="none" stroke="#D0D0D0" stroke-width="2" stroke-linecap="round" stroke-linejoin="round" stroke-miterlimit="10" x1="53" y1="95" x2="53" y2="33"/>
		<line fill="none" stroke="#D0D0D0" stroke-width="2" stroke-linecap="round" stroke-linejoin="round" stroke-miterlimit="10" x1="49" y1="95" x2="49" y2="37"/>
		<line fill="none" stroke="#D0D0D0" stroke-width="2" stroke-linecap="round" stroke-linejoin="round" stroke-miterlimit="10" x1="37" y1="49" x2="37" y2="95"/>
		<line fill="none" stroke="#D0D0D0" stroke-width="2" stroke-linecap="round" stroke-linejoin="round" stroke-miterlimit="10" x1="52.5" y1="33" x2="1" y2="33"/>
		<line fill="none" stroke="#D0D0D0" stroke-width="2" stroke-linecap="round" stroke-linejoin="round" stroke-miterlimit="10" x1="49" y1="37" x2="1" y2="37"/>
		<line fill="none" stroke="#D0D0D0" stroke-width="2" stroke-linecap="round" stroke-linejoin="round" stroke-miterlimit="10" x1="1" y1="49" x2="37" y2="49"/>
		<line fill="none" stroke="#263238" stroke-width="2" stroke-linecap="round" stroke-linejoin="round" stroke-miterlimit="10" x1="45" y1="8.5" x2="45" y2="95"/>
		<line fill="none" stroke="#263238" stroke-width="2" stroke-linecap="round" stroke-linejoin="round" stroke-miterlimit="10" x1="45" y1="8" x2="70" y2="8"/>
		<line fill="none" stroke="#263238" stroke-width="2" stroke-linecap="round" stroke-linejoin="round" stroke-miterlimit="10" x1="67" y1="81" x2="83" y2="81"/>
	<g>
		<path fill="none" stroke="#263238" stroke-width="2" stroke-linecap="round" stroke-linejoin="round" stroke-miterlimit="10" d="
			M86.7,57c1.2,0,2.3,1,2.3,2.2v27.6c0,1.2-1.1,2.2-2.3,2.2H65.3c-1.2,0-2.3-1-2.3-2.2V76.6c0-1.4,0-3.4,0-4.5V59.3
			c0-1.2,0.8-2.3,2.1-2.3h21.8H86.7z"/>
	</g>
		<line fill="none" stroke="#263238" stroke-width="2" stroke-linecap="round" stroke-linejoin="round" stroke-miterlimit="10" x1="67" y1="65" x2="77" y2="65"/>
		<line fill="none" stroke="#263238" stroke-width="2" stroke-linecap="round" stroke-linejoin="round" stroke-miterlimit="10" x1="67" y1="69" x2="81.1" y2="69"/>
		<line fill="none" stroke="#263238" stroke-width="2" stroke-linecap="round" stroke-linejoin="round" stroke-miterlimit="10" x1="67" y1="73" x2="77" y2="73"/>
		<line fill="none" stroke="#263238" stroke-width="2" stroke-linecap="round" stroke-linejoin="round" stroke-miterlimit="10" x1="67" y1="77" x2="83" y2="77"/>
</g>
<g id="Layer_2">
	<g>
		<path fill="#297FFF" stroke="#297FFF" stroke-width="0.25" stroke-miterlimit="10" d="M23.1,82.6c-0.1,0-0.1-0.1-0.1-0.2v-1
			c0-0.1,0.1-0.2,0.1-0.2l9.8-3.5c0.1,0,0.1,0,0.1,0.1v1.1c0,0.1,0,0.2-0.1,0.2l-2.2,0.7V84l2.2,0.7c0.1,0,0.1,0.1,0.1,0.2V86
			c0,0.1-0.1,0.1-0.1,0.1L23.1,82.6z M29.5,80.4L24.9,82l0,0l4.6,1.6V80.4z"/>
		<path fill="#297FFF" stroke="#297FFF" stroke-width="0.25" stroke-miterlimit="10" d="M23.1,76.9c-0.1,0-0.1-0.1-0.1-0.1v-3.6
			c0-2,1.1-3.1,2.6-3.1c1.2,0,1.9,0.5,2.2,1.4l0,0c0.2-0.6,0.9-1.5,2.3-1.5c1.9,0,2.8,1.2,2.8,3.3v3.5c0,0.1-0.1,0.1-0.1,0.1H23.1z
			 M27.3,73.2c0-1.2-0.6-1.8-1.6-1.8s-1.6,0.6-1.6,1.8v2.3c0,0.1,0,0.1,0.1,0.1h2.9c0.1,0,0.1,0,0.1-0.1V73.2z M31.7,75.5v-2.3
			c0-1.2-0.6-1.9-1.7-1.9c-0.9,0-1.7,0.6-1.7,1.9v2.3c0,0.1,0,0.1,0.1,0.1L31.7,75.5L31.7,75.5z"/>
		<path fill="#297FFF" stroke="#297FFF" stroke-width="0.25" stroke-miterlimit="10" d="M28,68.6c-1.6,0-2.1-0.1-2.8-0.3
			C23.7,67.8,23,66.7,23,65c0-1.4,0.7-2.6,1.9-3.2c0.1,0,0.1,0,0.2,0.1l0.4,0.8c0,0.1,0,0.2-0.1,0.2c-0.7,0.4-1.3,1-1.3,2
			s0.5,1.7,1.4,2c0.4,0.1,0.9,0.2,2.4,0.2s2-0.1,2.4-0.2c0.9-0.3,1.4-0.9,1.4-2c0-1-0.5-1.6-1.3-2c-0.1,0-0.1-0.1-0.1-0.2l0.4-0.8
			c0-0.1,0.1-0.1,0.2-0.1c1.2,0.5,1.9,1.6,1.9,3.2c0,1.6-0.7,2.8-2.2,3.3C30.1,68.5,29.6,68.6,28,68.6z"/>
	</g>
</g>
</svg>
