<svg width="18" height="18" viewBox="0 0 18 18" fill="none" xmlns="http://www.w3.org/2000/svg">
<path d="M11.5 3.5H14.5" stroke="#263238" stroke-linecap="round" stroke-linejoin="round"/>
<path d="M10.5 1.5H13.5" stroke="#263238" stroke-linecap="round" stroke-linejoin="round"/>
<path d="M12.5 5.5H15.5" stroke="#263238" stroke-linecap="round" stroke-linejoin="round"/>
<path d="M2.5 12.5H5.5" stroke="#297FFF" stroke-linecap="round" stroke-linejoin="round"/>
<path d="M3.5 14.5H5H6.5" stroke="#297FFF" stroke-linecap="round" stroke-linejoin="round"/>
<path d="M4.5 16.5H7.5" stroke="#297FFF" stroke-linecap="round" stroke-linejoin="round"/>
<path d="M8.5 8.6L6 7.2L3.4 8.6L4.4 6L2.5 4H4.9L6 1.5L7.1 4H9.5L7.7 6L8.5 8.6Z" stroke="#263238" stroke-miterlimit="10" stroke-linecap="round" stroke-linejoin="round"/>
<path d="M14.5 16.5L12 15.2L9.5 16.5L10.4 14L8.5 12H10.9L12 9.5L13.1 12H15.5L13.7 14L14.5 16.5Z" stroke="#297FFF" stroke-miterlimit="10" stroke-linecap="round" stroke-linejoin="round"/>
</svg>
